HIERARCHY
ROOT pelvis
{
  OFFSET 0 100 0
  CHANNELS 6 Xposition Yposition Zposition Zrotation Xrotation Yrotation
  JOINT pelvis_right_femur
  {
    OFFSET -10.78128 -3.44521 -0.5502486
    CHANNELS 3 Zrotation Xrotation Yrotation
    JOINT right_femur_tibia
    {
      OFFSET -0.8047443 -44.0398 -0.1307829
      CHANNELS 3 Zrotation Xrotation Yrotation
      JOINT right_tibia_foot
      {
        OFFSET 3.006224 -47.83518 -5
        CHANNELS 3 Zrotation Xrotation Yrotation
        End Site
        {
          OFFSET 0 -5 15
        }
      }
    }
  }
  JOINT pelvis_left_femur
  {
    OFFSET 10.78128 -3.44521 -0.5502486
    CHANNELS 3 Zrotation Xrotation Yrotation
    JOINT left_femur_tibia
    {
      OFFSET 0.8047443 -44.0398 -0.1307829
      CHANNELS 3 Zrotation Xrotation Yrotation
      JOINT left_tibia_foot
      {
        OFFSET -4.370144 -48.10324 -4.275266
        CHANNELS 3 Zrotation Xrotation Yrotation
        End Site
        {
          OFFSET 0 -5 15
        }
      }
    }
  }
  JOINT pelvis_spine1
  {
    OFFSET 0 6.468898 -3.129235
    CHANNELS 3 Zrotation Xrotation Yrotation
    JOINT spine1
    {
      OFFSET 0 23.15396 4.99043
      CHANNELS 3 Zrotation Xrotation Yrotation
      JOINT spine2
      {
        OFFSET 0 20.79997 -5.064912
        CHANNELS 3 Zrotation Xrotation Yrotation
        JOINT neck
        {
          OFFSET 0 14.38658 9.616178
          CHANNELS 3 Zrotation Xrotation Yrotation
          End Site
          {
            OFFSET 0 20 0
          }
        }
      }
      JOINT right_manubrium
      {
        OFFSET -5.722621 16.35077 3.967754
        CHANNELS 3 Zrotation Xrotation Yrotation
        JOINT right_clavicle
        {
          OFFSET -13.16364 1.694482 -4.693211
          CHANNELS 3 Zrotation Xrotation Yrotation
          JOINT right_humerus
          {
            OFFSET -28.5034 -0.3100689 -2.792744
            CHANNELS 3 Zrotation Xrotation Yrotation
            JOINT right_radius
            {
              OFFSET -25.15693 0.02248979 -1.271978
              CHANNELS 3 Zrotation Xrotation Yrotation
              End Site
              {
                OFFSET -15 0 0
              }
            }
          }
        }
      }
      JOINT left_manubrium
      {
        OFFSET 5.722621 16.35077 3.967754
        CHANNELS 3 Zrotation Xrotation Yrotation
        JOINT left_clavicle
        {
          OFFSET 13.16364 1.694482 -4.693211
          CHANNELS 3 Zrotation Xrotation Yrotation
          JOINT left_humerus
          {
            OFFSET 29.39168 -1.063119 -2.237045
            CHANNELS 3 Zrotation Xrotation Yrotation
            JOINT left_radius
            {
              OFFSET 24.59957 -0.9528479 0.9047498
              CHANNELS 3 Zrotation Xrotation Yrotation
              End Site
              {
                OFFSET 15 -0 -0
              }
            }
          }
        }
      }
    }
  }
}
MOTION
Frames: 21
Frame Time: 0.0416666666667
0 103.5113 0 1.046463 -1.851078 0.06227358 2.961428 -15.3565 9.478422 -0 41.44266 -0 -7.128873 -16.34551 -3.631061 -6.981036 11.20233 -24.31449 -0 5.777447 -0 8.932591 -15.93902 27.26182 -3.549591 -3.871566 4.276907 2.304896 9.585751 -7.349956 1.404337 22.75629 6.470051 2.875682 -24.16033 9.231526 6.122552 -20.15647 11.47048 85.79115 34.12543 -18.78704 -0 0 16.45692 -6.557763 6.814487 4.52646 5.093461 -18.86828 -2.177645 -94.60553 27.55172 22.99949 0 0 -14.33153 7.039644 17.58274 6.063102
0.2603037 103.4922 1.411801 0.6953493 -1.496598 0.06984391 3.476373 -16.96304 9.42336 -0 40.6226 -0 -7.134538 -15.2584 -3.555638 -6.780423 11.29607 -23.8093 -0 5.735446 -0 8.685912 -16.51033 27.00722 -3.258965 -3.690859 4.318072 2.285029 9.65602 -7.457103 1.464918 22.51177 6.560372 2.971876 -24.50946 9.347551 5.94555 -20.19522 11.42335 86.05159 33.98421 -19.00367 -0 0 16.36316 -6.699061 7.07427 4.434942 5.385428 -19.28254 -2.092644 -94.54537 27.40002 22.95151 0 0 -14.92336 7.451015 17.60957 5.893058
0.5078499 103.1343 3.937607 -0.989817 -0.07510124 0.1754426 5.47316 -25.78895 7.685879 -0 32.81912 -0 -6.967809 -6.871389 -3.201671 -5.568488 12.78313 -19.5058 -0 6.099453 -0 3.833145 -21.18789 22.70596 -1.731604 -2.299936 4.213548 2.075657 9.963442 -8.245587 1.574314 21.19966 7.279739 3.711784 -25.5913 9.523674 4.632676 -19.8918 11.14441 88.30033 32.29285 -21.35847 -0 0 14.98908 -9.533656 9.282316 4.669941 6.892609 -22.19437 -2.358558 -93.65505 28.39469 21.8708 0 0 -19.98628 5.91595 17.34714 9.014256
0.7375939 102.7136 6.684121 -1.338232 1.105168 0.3728302 6.350279 -28.09376 8.054211 -0 29.67771 -0 -6.768086 -6.932407 -3.100085 -5.424751 12.93671 -19.16161 -0 7.049203 -0 3.427166 -21.87005 22.02989 -1.615971 -2.121008 4.293281 2.351971 9.653392 -8.397477 1.653012 20.75627 7.355761 3.762944 -26.18661 9.779093 4.861342 -19.55441 11.04233 88.13733 33.10709 -21.71743 -0 0 14.6957 -8.776863 9.577629 4.296548 7.203543 -22.3267 -1.802972 -93.61907 28.43148 21.68347 0 0 -20.65655 6.449835 17.11264 8.594744
0.9849319 102.0465 9.988906 -1.509647 1.403796 0.6591157 6.238515 -30.40303 6.594738 -0 25.57614 -0 -6.619623 -4.394635 -2.593917 -5.27057 13.47946 -17.46347 -0 7.621135 -0 2.937951 -22.53115 20.42633 -1.551407 -1.632697 4.021212 2.532299 9.79749 -8.476024 1.616054 20.43851 7.581216 3.792426 -26.37697 9.911707 4.46727 -19.0804 11.14445 88.57622 32.50732 -21.93854 -0 0 13.36973 -10.44251 10.37525 5.193389 7.481685 -22.97548 -1.954699 -91.76669 26.47837 19.35594 0 0 -21.87076 8.058107 16.13611 6.440989
1.250218 101.2214 13.68464 -1.480163 1.42647 1.010739 5.904703 -31.54736 5.233853 -0 22.67452 -0 -6.577232 -2.794795 -2.147578 -5.277814 13.99703 -16.3659 -0 8.064539 -0 2.803679 -22.76394 19.37621 -1.600289 -1.358556 3.762575 2.653224 9.908854 -8.46779 1.548705 20.34939 7.717164 3.774129 -26.37563 9.933698 4.116455 -18.71252 11.24337 88.93858 31.93708 -22.05567 -0 0 12.23435 -11.70177 10.71345 5.955446 7.595842 -23.36227 -2.173337 -90.31327 24.88164 17.45698 0 0 -22.89792 9.234325 15.34338 4.663401
1.531402 100.1842 17.89931 -1.292765 1.078799 1.438192 5.138188 -32.37242 3.088326 -0 18.99581 -0 -6.596012 -0.5958036 -1.648511 -5.348254 14.82091 -14.85921 -0 8.711138 -0 2.238046 -23.02733 17.86819 -1.652058 -1.067925 3.402196 2.68165 10.08419 -8.421841 1.428612 20.3946 7.84949 3.753717 -26.06116 9.785853 3.462439 -18.25675 11.34419 89.65825 30.74608 -22.35495 -0 0 10.68507 -13.65724 10.97992 7.012851 7.703852 -23.94416 -2.697731 -88.48759 23.05743 14.9737 0 0 -24.54739 10.07119 14.39977 3.0553
1.824823 98.96368 22.64676 -0.9898978 0.4581468 1.932377 4.226571 -32.5834 0.7749943 -0 15.36594 -0 -6.723576 1.551591 -1.253992 -5.474687 15.75736 -13.31882 -0 9.69275 -0 1.426661 -23.15511 16.32397 -1.671534 -0.8875829 3.047827 2.613344 10.27336 -8.352976 1.297866 20.5734 7.893779 3.708713 -25.52394 9.486629 2.622598 -17.84197 11.40322 90.60913 29.16666 -22.7974 -0 0 9.080895 -15.69071 11.0108 8.011931 7.768743 -24.57877 -3.378896 -86.78607 21.4304 12.55724 0 0 -26.4355 10.41682 13.59309 1.951255
2.11703 97.59278 28.01038 -0.5639646 -0.5358172 2.474596 3.209864 -32.01258 -1.759587 -0 11.54771 -0 -7.001323 3.813655 -1.039104 -5.627168 16.84855 -11.51562 -0 11.49858 -0 0.2525486 -22.99442 14.59737 -1.599257 -0.8532928 2.685912 2.43135 10.51383 -8.281067 1.15508 20.90819 7.806923 3.600195 -24.7101 8.992557 1.461819 -17.46197 11.41173 91.9614 26.94339 -23.45539 -0 0 7.253464 -17.9873 10.82967 8.993667 7.758688 -25.34951 -4.28404 -85.07719 19.85416 10.04965 0 0 -28.6586 10.29426 12.91843 1.311638
2.386812 96.22972 34.00618 -0.1467878 -1.658705 3.022475 2.604084 -30.52922 -3.636684 -0 8.311012 -0 -7.371269 5.549847 -1.227873 -5.703406 17.77137 -9.736935 -0 14.73514 -0 -0.984984 -22.14523 13.0717 -1.363177 -1.089592 2.426262 2.192484 10.7805 -8.267251 1.04408 21.30131 7.523711 3.38139 -23.80571 8.383406 0.1808679 -17.21483 11.35672 93.55004 24.53204 -24.28983 -0 0 5.505171 -19.93433 10.51989 9.689849 7.597561 -26.07745 -5.178738 -83.70907 18.63392 8.08107 0 0 -30.76846 9.733426 12.47201 1.349502
2.599982 95.16316 40.5672 0.0210765 -2.510783 3.485677 2.984638 -28.13089 -3.779892 -0 6.695613 -0 -7.596594 6.044222 -2.0666 -5.492136 17.99635 -8.346628 -0 20.28908 -0 -1.969797 -19.93521 12.09423 -0.8507276 -1.689213 2.402108 1.99385 11.07421 -8.389664 0.9982272 21.54069 7.055249 3.018296 -23.07687 7.814464 -0.8276423 -17.17993 11.27844 95.06024 22.74785 -25.25813 -0 0 4.258559 -20.90549 10.43267 9.964411 7.182134 -26.48216 -5.736404 -83.01139 18.10086 7.470443 0 0 -32.22328 8.775521 12.14467 2.393239
2.737865 94.75861 47.48139 -0.3773982 -2.494052 3.754009 4.632991 -25.26929 -1.260407 -0 7.932112 -0 -7.034072 4.681779 -3.531671 -4.756658 16.79391 -7.89551 -0 28.34969 -0 -2.716268 -15.83831 11.78563 -0.009156434 -2.487979 2.755088 1.969043 11.37726 -8.667248 1.013798 21.24936 6.651395 2.620036 -22.84562 7.57035 -0.7437176 -17.32779 11.33567 95.7162 22.98431 -26.18804 -0 0 4.298297 -20.42727 11.26661 9.918961 6.487089 -26.11942 -5.541472 -83.38734 18.68371 9.178928 0 0 -32.34369 7.338033 11.48098 4.973595
2.83912 95.16356 54.5099 -1.22892 -1.736911 3.781369 6.744385 -22.44685 2.935256 -0 11.50753 -0 -5.045111 2.10471 -4.877945 -3.636921 14.06886 -8.286796 -0 37.71841 -0 -4.107521 -10.53662 11.64742 0.9367897 -2.876194 3.40264 2.083956 11.65011 -8.895119 1.020912 20.37008 6.690071 2.512791 -22.85494 7.717466 0.9640983 -17.29016 11.71039 94.83557 25.71866 -26.69501 -0 0 5.922818 -19.33929 13.42699 9.934997 5.715973 -24.87751 -4.709409 -84.71414 20.19729 12.60752 0 0 -31.02356 5.335431 9.939889 8.887669
2.961842 96.12095 61.51851 -1.775443 -1.517507 3.525145 7.842909 -19.59265 5.872102 -0 14.65929 -0 -2.601531 -0.2232051 -5.25327 -2.762424 10.85181 -8.553267 -0 46.31603 -0 -6.373142 -6.471033 11.54832 1.390118 -2.327081 3.965021 2.109238 11.72595 -8.750313 1.026705 19.74648 7.047988 2.856695 -22.30327 7.867088 3.356189 -16.62147 12.14722 92.81385 29.24134 -26.21346 -0 0 7.8039 -18.99147 15.7707 9.968237 5.204324 -23.3931 -3.964927 -85.9912 21.748 14.90385 0 0 -28.69578 3.502462 8.243627 11.9155
3.094192 97.35602 68.34458 -1.675609 -2.228862 2.974828 7.739034 -16.21872 6.517406 -0 15.87064 -0 -1.975748 -2.454145 -4.875979 -2.517397 7.576066 -8.395451 -0 52.97633 -0 -7.962982 -5.019232 11.91306 1.129109 -1.260978 4.342529 2.016097 11.42565 -8.216884 1.125863 20.09331 7.12472 3.219321 -21.40045 7.785931 4.823659 -15.75181 12.14258 90.81858 31.55871 -24.6561 -0 0 8.578222 -18.57882 16.43645 9.501716 4.898562 -22.23103 -3.473256 -86.88091 23.07862 15.23655 0 0 -25.77011 2.704414 7.798157 12.5939
3.221192 98.73817 74.80851 -1.249589 -2.964973 2.281749 7.21445 -12.14093 6.296863 -0 15.76297 -0 -2.976247 -5.135419 -4.271419 -2.670109 3.317676 -8.205002 -0 57.27015 -0 -8.266625 -5.000841 12.5875 0.5748792 -0.3229259 4.891343 1.890024 10.96464 -7.492195 1.264689 20.88139 6.844312 3.310711 -20.89364 7.601034 5.219546 -15.51702 11.87122 89.16768 32.49948 -22.51339 -0 0 9.12055 -17.44827 15.5102 8.884178 4.622206 -21.28347 -2.933403 -88.10998 24.31896 15.85131 0 0 -22.80315 2.481546 8.07727 12.41966
3.36514 100.0499 80.86468 -0.6618817 -3.394166 1.585639 6.531814 -7.42213 6.023705 -0 14.73052 -0 -3.945916 -7.764274 -3.582179 -2.809636 -2.408037 -7.906433 -0 59.10209 -0 -8.005211 -5.247802 13.3135 -0.006144023 0.3843788 5.766244 1.662817 10.63221 -6.662765 1.335596 21.52376 6.528249 3.305974 -20.65491 7.361004 5.202329 -15.97568 11.72358 87.50259 32.85677 -20.1129 -0 0 10.41279 -16.68112 14.32842 8.800134 4.477702 -20.43493 -2.370387 -89.73764 25.15769 17.54869 0 0 -20.30366 2.184882 8.115387 12.53663
3.546228 101.0011 86.57323 0.02570768 -3.597819 0.9793259 5.707866 -2.369014 5.754181 -0 12.93504 -0 -4.260534 -10.05144 -2.78283 -2.620473 -9.220054 -7.292978 -0 58.00482 -0 -7.729114 -5.549111 14.09055 -0.5690632 0.9496144 6.796149 1.263744 10.38957 -5.740767 1.310186 21.93609 6.35708 3.357551 -20.34327 7.083247 5.068837 -16.78232 11.74612 85.58234 33.16358 -17.45944 -0 0 12.45557 -16.88816 13.51804 9.295101 4.609127 -19.67921 -1.850946 -91.343 25.46768 19.67406 0 0 -18.47247 1.781789 7.793016 12.87235
3.770573 101.3085 92.07403 0.635556 -3.707592 0.5068841 4.892094 2.641554 5.410675 -0 10.82475 -0 -3.931435 -12.00621 -1.916781 -1.801562 -16.28152 -6.137214 -0 53.22497 -0 -7.659703 -5.911919 15.03311 -1.008976 1.386591 7.691915 0.702167 10.10914 -4.78539 1.207613 22.18203 6.348483 3.444155 -19.81899 6.812813 4.73737 -17.71162 11.83365 83.45051 33.30605 -14.53861 -0 0 14.91395 -18.14422 13.06662 10.21215 5.022416 -19.0283 -1.430289 -92.52334 25.34874 21.52137 0 0 -17.35976 1.381235 7.276052 13.22757
4.047234 100.8304 97.57386 0.9039009 -3.83308 0.130191 4.337419 7.248848 4.961274 -0 9.177617 -0 -3.111238 -13.77906 -1.157027 -0.2717145 -22.3215 -4.360239 -0 44.76518 -0 -7.66074 -6.281219 16.21578 -1.195714 1.611393 8.192557 0.1372339 9.743137 -3.981853 1.080393 22.30646 6.398594 3.393592 -19.20771 6.633656 4.014331 -18.72286 11.85669 81.47225 32.78436 -11.56792 -0 0 17.37313 -20.16216 12.74625 11.4246 5.482895 -18.4539 -1.170253 -93.08518 25.02785 22.7541 0 0 -16.77571 0.9519093 6.705351 13.6452
4.405985 99.71163 103.2952 0.7456019 -3.997906 -0.253987 4.111733 11.27492 4.529457 -0 8.879955 -0 -1.987012 -15.44691 -0.6916001 1.356011 -26.14112 -2.549364 -0 34.55775 -0 -7.398094 -6.626631 17.53312 -1.162942 1.533041 8.274082 -0.2012912 9.313219 -3.512676 1.023389 22.33641 6.33144 3.054677 -18.82203 6.623377 2.884987 -19.8112 11.68217 80.13219 31.25944 -8.972736 -0 0 19.55209 -22.1488 12.24141 12.68587 5.652828 -17.77764 -1.046771 -93.30892 24.82661 23.59315 0 0 -15.99455 0.3360845 6.118675 14.26873
